<svg xmlns="http://www.w3.org/2000/svg" xmlns:xlink="http://www.w3.org/1999/xlink" xmlns:lucid="lucid" width="1640" height="866"><g transform="translate(-8.343666961913186 -8.343666961913215)" lucid:page-tab-id="0_0"><path d="M28.34 294.34h480v78h-480z" stroke="#000" stroke-opacity="0" stroke-width="2" fill="#fff" fill-opacity="0"/><use xlink:href="#a" transform="matrix(1,0,0,1,33.343666961913215,299.3436669619132) translate(143.44444444444443 44.79166666666667)"/><path d="M588.34 294.34h480v78h-480z" stroke="#000" stroke-opacity="0" stroke-width="2" fill="#fff" fill-opacity="0"/><use xlink:href="#b" transform="matrix(1,0,0,1,593.3436669619132,299.3436669619132) translate(107.66666666666666 44.79166666666667)"/><path d="M1148.34 294.34h480v78h-480z" stroke="#000" stroke-opacity="0" stroke-width="2" fill="#fff" fill-opacity="0"/><use xlink:href="#c" transform="matrix(1,0,0,1,1153.3436669619132,299.3436669619132) translate(95.88888888888889 44.79166666666667)"/><path d="M508.34 28.34h640v266h-640z" stroke="#000" stroke-opacity="0" stroke-width="2" fill="#fff" fill-opacity="0"/><use xlink:href="#d" transform="matrix(1,0,0,1,513.3436669619132,33.343666961913215) translate(7.444444444444457 149.33333333333334)"/><use xlink:href="#e" transform="matrix(1,0,0,1,513.3436669619132,33.343666961913215) translate(291.00000000000006 149.33333333333334)"/><path d="M508.34 614.34c0 132.55-107.45 240-240 240-132.54 0-240-107.45-240-240 0-132.54 107.46-240 240-240 132.55 0 240 107.46 240 240z" stroke="#000" stroke-opacity="0" stroke-width="2" fill="#324493"/><path d="M1068.34 614.34c0 132.55-107.45 240-240 240-132.54 0-240-107.45-240-240 0-132.54 107.46-240 240-240 132.55 0 240 107.46 240 240z" stroke="#000" stroke-opacity="0" stroke-width="2" fill="#fff4ec"/><path d="M1628.34 614.34c0 132.55-107.45 240-240 240-132.54 0-240-107.45-240-240 0-132.54 107.46-240 240-240 132.55 0 240 107.46 240 240z" stroke="#000" stroke-opacity="0" stroke-width="2" fill="#333"/><defs><path fill="#333" d="M30-248c87 1 191-15 191 75 0 78-77 80-158 76V0H30v-248zm33 125c57 0 124 11 124-50 0-59-68-47-124-48v98" id="f"/><path fill="#333" d="M114-163C36-179 61-72 57 0H25l-1-190h30c1 12-1 29 2 39 6-27 23-49 58-41v29" id="g"/><path fill="#333" d="M24-231v-30h32v30H24zM24 0v-190h32V0H24" id="h"/><path fill="#333" d="M210-169c-67 3-38 105-44 169h-31v-121c0-29-5-50-35-48C34-165 62-65 56 0H25l-1-190h30c1 10-1 24 2 32 10-44 99-50 107 0 11-21 27-35 58-36 85-2 47 119 55 194h-31v-121c0-29-5-49-35-48" id="i"/><path fill="#333" d="M141-36C126-15 110 5 73 4 37 3 15-17 15-53c-1-64 63-63 125-63 3-35-9-54-41-54-24 1-41 7-42 31l-33-3c5-37 33-52 76-52 45 0 72 20 72 64v82c-1 20 7 32 28 27v20c-31 9-61-2-59-35zM48-53c0 20 12 33 32 33 41-3 63-29 60-74-43 2-92-5-92 41" id="j"/><path fill="#333" d="M179-190L93 31C79 59 56 82 12 73V49c39 6 53-20 64-50L1-190h34L92-34l54-156h33" id="k"/><g id="a"><use transform="matrix(0.14814814814814817,0,0,0.14814814814814817,0,0)" xlink:href="#f"/><use transform="matrix(0.14814814814814817,0,0,0.14814814814814817,35.55555555555556,0)" xlink:href="#g"/><use transform="matrix(0.14814814814814817,0,0,0.14814814814814817,53.18518518518519,0)" xlink:href="#h"/><use transform="matrix(0.14814814814814817,0,0,0.14814814814814817,64.8888888888889,0)" xlink:href="#i"/><use transform="matrix(0.14814814814814817,0,0,0.14814814814814817,109.1851851851852,0)" xlink:href="#j"/><use transform="matrix(0.14814814814814817,0,0,0.14814814814814817,138.81481481481484,0)" xlink:href="#g"/><use transform="matrix(0.14814814814814817,0,0,0.14814814814814817,156.44444444444446,0)" xlink:href="#k"/></g><path fill="#333" d="M185-189c-5-48-123-54-124 2 14 75 158 14 163 119 3 78-121 87-175 55-17-10-28-26-33-46l33-7c5 56 141 63 141-1 0-78-155-14-162-118-5-82 145-84 179-34 5 7 8 16 11 25" id="l"/><path fill="#333" d="M100-194c63 0 86 42 84 106H49c0 40 14 67 53 68 26 1 43-12 49-29l28 8c-11 28-37 45-77 45C44 4 14-33 15-96c1-61 26-98 85-98zm52 81c6-60-76-77-97-28-3 7-6 17-6 28h103" id="m"/><path fill="#333" d="M96-169c-40 0-48 33-48 73s9 75 48 75c24 0 41-14 43-38l32 2c-6 37-31 61-74 61-59 0-76-41-82-99-10-93 101-131 147-64 4 7 5 14 7 22l-32 3c-4-21-16-35-41-35" id="n"/><path fill="#333" d="M100-194c62-1 85 37 85 99 1 63-27 99-86 99S16-35 15-95c0-66 28-99 85-99zM99-20c44 1 53-31 53-75 0-43-8-75-51-75s-53 32-53 75 10 74 51 75" id="o"/><path fill="#333" d="M117-194c89-4 53 116 60 194h-32v-121c0-31-8-49-39-48C34-167 62-67 57 0H25l-1-190h30c1 10-1 24 2 32 11-22 29-35 61-36" id="p"/><path fill="#333" d="M85-194c31 0 48 13 60 33l-1-100h32l1 261h-30c-2-10 0-23-3-31C134-8 116 4 85 4 32 4 16-35 15-94c0-66 23-100 70-100zm9 24c-40 0-46 34-46 75 0 40 6 74 45 74 42 0 51-32 51-76 0-42-9-74-50-73" id="q"/><g id="b"><use transform="matrix(0.14814814814814817,0,0,0.14814814814814817,0,0)" xlink:href="#l"/><use transform="matrix(0.14814814814814817,0,0,0.14814814814814817,35.55555555555556,0)" xlink:href="#m"/><use transform="matrix(0.14814814814814817,0,0,0.14814814814814817,65.18518518518519,0)" xlink:href="#n"/><use transform="matrix(0.14814814814814817,0,0,0.14814814814814817,91.85185185185186,0)" xlink:href="#o"/><use transform="matrix(0.14814814814814817,0,0,0.14814814814814817,121.4814814814815,0)" xlink:href="#p"/><use transform="matrix(0.14814814814814817,0,0,0.14814814814814817,151.11111111111114,0)" xlink:href="#q"/><use transform="matrix(0.14814814814814817,0,0,0.14814814814814817,180.74074074074076,0)" xlink:href="#j"/><use transform="matrix(0.14814814814814817,0,0,0.14814814814814817,210.37037037037035,0)" xlink:href="#g"/><use transform="matrix(0.14814814814814817,0,0,0.14814814814814817,228,0)" xlink:href="#k"/></g><path fill="#333" d="M127-220V0H93v-220H8v-28h204v28h-85" id="r"/><path fill="#333" d="M115-194c55 1 70 41 70 98S169 2 115 4C84 4 66-9 55-30l1 105H24l-1-265h31l2 30c10-21 28-34 59-34zm-8 174c40 0 45-34 45-75s-6-73-45-74c-42 0-51 32-51 76 0 43 10 73 51 73" id="s"/><path fill="#333" d="M177-190C167-65 218 103 67 71c-23-6-38-20-44-43l32-5c15 47 100 32 89-28v-30C133-14 115 1 83 1 29 1 15-40 15-95c0-56 16-97 71-98 29-1 48 16 59 35 1-10 0-23 2-32h30zM94-22c36 0 50-32 50-73 0-42-14-75-50-75-39 0-46 34-46 75s6 73 46 73" id="t"/><path fill="#333" d="M106-169C34-169 62-67 57 0H25v-261h32l-1 103c12-21 28-36 61-36 89 0 53 116 60 194h-32v-121c2-32-8-49-39-48" id="u"/><g id="c"><use transform="matrix(0.14814814814814817,0,0,0.14814814814814817,0,0)" xlink:href="#r"/><use transform="matrix(0.14814814814814817,0,0,0.14814814814814817,29.481481481481488,0)" xlink:href="#k"/><use transform="matrix(0.14814814814814817,0,0,0.14814814814814817,56.14814814814815,0)" xlink:href="#s"/><use transform="matrix(0.14814814814814817,0,0,0.14814814814814817,85.7777777777778,0)" xlink:href="#o"/><use transform="matrix(0.14814814814814817,0,0,0.14814814814814817,115.40740740740743,0)" xlink:href="#t"/><use transform="matrix(0.14814814814814817,0,0,0.14814814814814817,145.03703703703707,0)" xlink:href="#g"/><use transform="matrix(0.14814814814814817,0,0,0.14814814814814817,162.66666666666669,0)" xlink:href="#j"/><use transform="matrix(0.14814814814814817,0,0,0.14814814814814817,192.29629629629628,0)" xlink:href="#s"/><use transform="matrix(0.14814814814814817,0,0,0.14814814814814817,221.92592592592592,0)" xlink:href="#u"/><use transform="matrix(0.14814814814814817,0,0,0.14814814814814817,251.55555555555554,0)" xlink:href="#k"/></g><path fill="#333" d="M212-179c-10-28-35-45-73-45-59 0-87 40-87 99 0 60 29 101 89 101 43 0 62-24 78-52l27 14C228-24 195 4 139 4 59 4 22-46 18-125c-6-104 99-153 187-111 19 9 31 26 39 46" id="v"/><path fill="#333" d="M24 0v-261h32V0H24" id="w"/><g id="d"><use transform="matrix(0.29629629629629634,0,0,0.29629629629629634,0,0)" xlink:href="#v"/><use transform="matrix(0.29629629629629634,0,0,0.29629629629629634,76.74074074074075,0)" xlink:href="#o"/><use transform="matrix(0.29629629629629634,0,0,0.29629629629629634,136,0)" xlink:href="#w"/><use transform="matrix(0.29629629629629634,0,0,0.29629629629629634,159.40740740740742,0)" xlink:href="#o"/><use transform="matrix(0.29629629629629634,0,0,0.29629629629629634,218.66666666666669,0)" xlink:href="#g"/></g><path fill="#333" d="M59-47c-2 24 18 29 38 22v24C64 9 27 4 27-40v-127H5v-23h24l9-43h21v43h35v23H59v120" id="x"/><g id="e"><use transform="matrix(0.29629629629629634,0,0,0.29629629629629634,0,0)" xlink:href="#f"/><use transform="matrix(0.29629629629629634,0,0,0.29629629629629634,71.11111111111111,0)" xlink:href="#j"/><use transform="matrix(0.29629629629629634,0,0,0.29629629629629634,130.37037037037038,0)" xlink:href="#w"/><use transform="matrix(0.29629629629629634,0,0,0.29629629629629634,153.7777777777778,0)" xlink:href="#m"/><use transform="matrix(0.29629629629629634,0,0,0.29629629629629634,213.03703703703707,0)" xlink:href="#x"/><use transform="matrix(0.29629629629629634,0,0,0.29629629629629634,242.66666666666669,0)" xlink:href="#x"/><use transform="matrix(0.29629629629629634,0,0,0.29629629629629634,272.2962962962963,0)" xlink:href="#m"/></g></defs></g></svg>